<mxfile host="app.diagrams.net" modified="2024-05-28T04:43:16.544Z" agent="Mozilla/5.0 (Windows NT 10.0; Win64; x64) AppleWebKit/537.36 (KHTML, like Gecko) Chrome/125.0.0.0 Safari/537.36" etag="uOxFfGYSSMlwWjE3Lryh" version="24.4.9" type="github">
  <diagram name="Page-1" id="GdCb9U8O7wZpwN62sQ-e">
    <mxGraphModel dx="545" dy="353" grid="1" gridSize="10" guides="1" tooltips="1" connect="1" arrows="1" fold="1" page="1" pageScale="1" pageWidth="850" pageHeight="1100" math="0" shadow="0">
      <root>
        <mxCell id="0" />
        <mxCell id="1" parent="0" />
        <mxCell id="bn6MlCVHY6HRNkUqiRWb-6" value="Book" style="swimlane;childLayout=stackLayout;horizontal=1;startSize=50;horizontalStack=0;rounded=1;fontSize=14;fontStyle=0;strokeWidth=2;resizeParent=0;resizeLast=1;shadow=0;dashed=0;align=center;arcSize=4;whiteSpace=wrap;html=1;" vertex="1" parent="1">
          <mxGeometry x="390" y="260" width="100" height="120" as="geometry" />
        </mxCell>
        <mxCell id="bn6MlCVHY6HRNkUqiRWb-7" value="+ISBN (PK)&lt;br&gt;+Title&lt;br&gt;+Genre&lt;div&gt;+Author&lt;/div&gt;" style="align=left;strokeColor=none;fillColor=none;spacingLeft=4;fontSize=12;verticalAlign=top;resizable=0;rotatable=0;part=1;html=1;" vertex="1" parent="bn6MlCVHY6HRNkUqiRWb-6">
          <mxGeometry y="50" width="100" height="70" as="geometry" />
        </mxCell>
        <mxCell id="bn6MlCVHY6HRNkUqiRWb-8" value="Member" style="swimlane;childLayout=stackLayout;horizontal=1;startSize=50;horizontalStack=0;rounded=1;fontSize=14;fontStyle=0;strokeWidth=2;resizeParent=0;resizeLast=1;shadow=0;dashed=0;align=center;arcSize=4;whiteSpace=wrap;html=1;" vertex="1" parent="1">
          <mxGeometry x="30" y="260" width="120" height="140" as="geometry" />
        </mxCell>
        <mxCell id="bn6MlCVHY6HRNkUqiRWb-9" value="+Member ID (PK)&lt;br&gt;+Name&lt;br&gt;+Address&lt;div&gt;+Mobile&lt;/div&gt;&lt;div&gt;+Email&lt;/div&gt;" style="align=left;strokeColor=none;fillColor=none;spacingLeft=4;fontSize=12;verticalAlign=top;resizable=0;rotatable=0;part=1;html=1;" vertex="1" parent="bn6MlCVHY6HRNkUqiRWb-8">
          <mxGeometry y="50" width="120" height="90" as="geometry" />
        </mxCell>
        <mxCell id="bn6MlCVHY6HRNkUqiRWb-10" value="Loans" style="swimlane;childLayout=stackLayout;horizontal=1;startSize=50;horizontalStack=0;rounded=1;fontSize=14;fontStyle=0;strokeWidth=2;resizeParent=0;resizeLast=1;shadow=0;dashed=0;align=center;arcSize=4;whiteSpace=wrap;html=1;" vertex="1" parent="1">
          <mxGeometry x="180" y="430" width="140" height="150" as="geometry" />
        </mxCell>
        <mxCell id="bn6MlCVHY6HRNkUqiRWb-11" value="+Loan Date (CK)&lt;br&gt;+Return Date&lt;br&gt;+Member ID (CK)(FK)&lt;div&gt;+ISBN (CK)(FK)&lt;/div&gt;&lt;div&gt;+Staff ID (FK)&lt;/div&gt;" style="align=left;strokeColor=none;fillColor=none;spacingLeft=4;fontSize=12;verticalAlign=top;resizable=0;rotatable=0;part=1;html=1;" vertex="1" parent="bn6MlCVHY6HRNkUqiRWb-10">
          <mxGeometry y="50" width="140" height="100" as="geometry" />
        </mxCell>
        <mxCell id="bn6MlCVHY6HRNkUqiRWb-12" value="" style="edgeStyle=entityRelationEdgeStyle;fontSize=12;html=1;endArrow=ERzeroToMany;startArrow=ERmandOne;rounded=0;exitX=1;exitY=0.25;exitDx=0;exitDy=0;entryX=0;entryY=0.5;entryDx=0;entryDy=0;" edge="1" parent="1" source="bn6MlCVHY6HRNkUqiRWb-9" target="bn6MlCVHY6HRNkUqiRWb-10">
          <mxGeometry width="100" height="100" relative="1" as="geometry">
            <mxPoint x="250" y="480" as="sourcePoint" />
            <mxPoint x="350" y="380" as="targetPoint" />
          </mxGeometry>
        </mxCell>
        <mxCell id="bn6MlCVHY6HRNkUqiRWb-14" value="" style="edgeStyle=entityRelationEdgeStyle;fontSize=12;html=1;endArrow=ERzeroToMany;startArrow=ERmandOne;rounded=0;exitX=0;exitY=0.25;exitDx=0;exitDy=0;entryX=1.01;entryY=0.133;entryDx=0;entryDy=0;entryPerimeter=0;" edge="1" parent="1" source="bn6MlCVHY6HRNkUqiRWb-7" target="bn6MlCVHY6HRNkUqiRWb-11">
          <mxGeometry width="100" height="100" relative="1" as="geometry">
            <mxPoint x="310" y="310" as="sourcePoint" />
            <mxPoint x="370" y="472" as="targetPoint" />
          </mxGeometry>
        </mxCell>
        <mxCell id="bn6MlCVHY6HRNkUqiRWb-16" value="Librarians" style="swimlane;childLayout=stackLayout;horizontal=1;startSize=50;horizontalStack=0;rounded=1;fontSize=14;fontStyle=0;strokeWidth=2;resizeParent=0;resizeLast=1;shadow=0;dashed=0;align=center;arcSize=4;whiteSpace=wrap;html=1;" vertex="1" parent="1">
          <mxGeometry x="425" y="460" width="110" height="120" as="geometry" />
        </mxCell>
        <mxCell id="bn6MlCVHY6HRNkUqiRWb-17" value="+Staff ID (PK)&lt;div&gt;+Name&lt;/div&gt;&lt;div&gt;+Mobile&lt;/div&gt;&lt;div&gt;+Address&lt;/div&gt;" style="align=left;strokeColor=none;fillColor=none;spacingLeft=4;fontSize=12;verticalAlign=top;resizable=0;rotatable=0;part=1;html=1;" vertex="1" parent="bn6MlCVHY6HRNkUqiRWb-16">
          <mxGeometry y="50" width="110" height="70" as="geometry" />
        </mxCell>
        <mxCell id="bn6MlCVHY6HRNkUqiRWb-18" value="" style="edgeStyle=entityRelationEdgeStyle;fontSize=12;html=1;endArrow=ERzeroToMany;startArrow=ERmandOne;rounded=0;exitX=0;exitY=0.25;exitDx=0;exitDy=0;entryX=1;entryY=0.5;entryDx=0;entryDy=0;" edge="1" parent="1" source="bn6MlCVHY6HRNkUqiRWb-17" target="bn6MlCVHY6HRNkUqiRWb-11">
          <mxGeometry width="100" height="100" relative="1" as="geometry">
            <mxPoint x="400" y="338" as="sourcePoint" />
            <mxPoint x="331" y="503" as="targetPoint" />
          </mxGeometry>
        </mxCell>
      </root>
    </mxGraphModel>
  </diagram>
</mxfile>
